<svg xmlns="http://www.w3.org/2000/svg" width="68" height="69" viewBox="0 0 68 69">
  <defs>
    <style>
      .cls-1 {
        fill: #dd4f29;
        fill-rule: evenodd;
      }
    </style>
  </defs>
  <path id="Clock" class="cls-1" d="M654.857,368.424a4.9,4.9,0,0,0-3.643-4.743V345.025h-2.428v18.656A4.914,4.914,0,0,0,650,373.342a4.769,4.769,0,0,0,2.452-.7l13.334,13.5,1.717-1.739-13.334-13.5A4.9,4.9,0,0,0,654.857,368.424ZM650,370.883a2.459,2.459,0,1,1,2.429-2.458A2.446,2.446,0,0,1,650,370.883Zm33.97-3.688a34.246,34.246,0,0,0-32.756-33.163V334h-2.428v0.032A34.245,34.245,0,0,0,616.031,367.2H616v2.459h0.031a34.245,34.245,0,0,0,32.755,33.163V403h2.428v-0.183a34.245,34.245,0,0,0,32.755-33.163H684V367.2h-0.03Zm-2.429,2.459a32.047,32.047,0,0,1-8.388,20.473l-3.216-3.255-1.717,1.738,3.216,3.255a31.249,31.249,0,0,1-20.221,8.493v-4.886h-2.429v4.886a31.276,31.276,0,0,1-20.843-9.093l3.23-3.27-1.717-1.738-3.182,3.221a32.033,32.033,0,0,1-7.815-19.824h6.04V367.2h-6.04a32.044,32.044,0,0,1,8.981-21.1l2.622,2.655,1.717-1.739-2.574-2.606a31.219,31.219,0,0,1,19.581-7.913v5.038h2.429V336.49a31.255,31.255,0,0,1,20.221,8.494l-2.608,2.64,1.717,1.738,2.608-2.64a32.047,32.047,0,0,1,8.388,20.473H675.5v2.459h6.041Z" transform="translate(-616 -334)"/>
</svg>
